<?xml version="1.0" encoding="utf-8"?>
<!-- Generator: Adobe Illustrator 20.1.0, SVG Export Plug-In . SVG Version: 6.00 Build 0)  -->
<svg version="1.1" id="Capa_1" xmlns="http://www.w3.org/2000/svg" xmlns:xlink="http://www.w3.org/1999/xlink" x="0px" y="0px"
	 viewBox="0 0 600 300" style="enable-background:new 0 0 600 300;" xml:space="preserve">
<style type="text/css">
	.st0{fill:#6B9DD0;}
	.st1{fill:#BCC6CA;}
	.st2{fill:#FFFFFF;}
	.st3{font-family:'ArialMT';}
	.st4{font-size:36px;}
	.st5{fill:none;}
</style>
<g>
	<g>
		<path class="st0" d="M96,119v-8.3c0,0-6.3-2.5-12.9-1.8c-7.8,0.8-19.8,7.3-18.8,26.8c1.6,29.4,31.4,20.1,31.4,20.1v-9.1
			c0,0-2.7,3.3-7.4,3.9c-6.6,0.9-15.8-2-16-15.1C72,112.2,90.9,113.1,96,119z"/>
		<g>
			<path class="st1" d="M356.5,143.6c0,4.3-1.9,7.7-5.6,10c-3.7,2.4-8.9,3.5-15.6,3.5c-13.1,0-16.6-9.5-16.6-9.5l8.2-0.2
				c0,0,2.7,3.4,8.6,3.8c4.2,0.3,12-0.2,13.4-5.7c1.4-5.8-3.6-7.6-8.9-9.4c-5-1.6-10.7-0.7-17.6-6c-3.8-2.9-5.1-9.3-2.7-13.6
				c2.4-4.3,8.5-6.3,9.9-6.7c7.6-1.9,20.9-2.1,24.5,10l-7.2,0c-1-2-4.8-4.7-9-4.9c-3.8-0.2-6.7,0.2-8.6,1.2c-2,1-2.9,2.5-2.9,4.3
				c0,1.2,0,3.6,4.3,6.3c2.3,1.4,16.4,3.8,20.8,6.7C355.4,136.4,356.5,139.3,356.5,143.6z"/>
		</g>
		<path class="st1" d="M362.8,157.2h7.3c0,0-0.1-25.3,0-27.3c0.3-6.1,2.8-14.1,11.4-14c6.1,0.1,11.5,4.4,11.7,12.2
			c0.3,12.7,0.1,29.1,0.1,29.1h7.5v-28.9c0,0,0.1-12.2,11.7-12c9.6,0.2,10.6,6.8,11.3,11.3c0.7,4.5,0.5,29.5,0.5,29.5h7.2
			c0,0,0-23.5,0-27.4c0-3.9-2.5-20.9-18.5-20.8c-10.8-0.1-15.8,8.3-15.8,8.3s-5.9-8.3-15.7-8.4c-9.8-0.1-17,8.1-18.1,15.3
			C362.4,131.5,362.8,157.2,362.8,157.2z"/>
		<path class="st1" d="M468.5,111.6c6.1,3.5,5.4,10.9,5.4,10.9s-0.6,19.4-0.2,23.7c0.5,5.7,5.8,4.2,5.8,4.2s0-12.2,0.3-17.5
			c0.4-5.2,1.3-12.2,6.9-18c6-6.2,17.5-6.2,17.5-6.2l0,8c0,0-5.4-0.9-11.9,3.4c-5.5,3.6-5.4,13.3-5.4,13.3v23.7l-12.1-0.1
			c-6.7-0.3-7.6-5.1-7.6-5.1s-2.1,1.2-4.6,2.4c-4.3,2.1-12.2,3.9-18.8,1.8c-10.3-3.3-8.1-13.8-8.1-13.8c1-9.9,12.4-11.9,22.3-12.8
			c9.9-0.9,8.9-4.9,8.6-7.8c-0.3-3.7-4.4-6-9.3-6.3c-5.6-0.3-10,2.3-10,2.3v-7.1C449.6,110.3,460.8,107.2,468.5,111.6z M448.7,136.3
			c-5.9,1.6-5.9,8.8-4.4,11.3c1.5,2.6,8.2,6,16.2,2c6.1-3.1,6-9.6,6-9.6v-7.3C462.7,135.2,454.6,134.7,448.7,136.3z"/>
		<path class="st0" d="M189.6,92.1v41.8c0,0,2.6,18.7-16.3,22.9c-18.9,4.2-24.6-10.3-24.6-10.3s-7.7-17.2,2-29.8
			c9.6-12.6,27.8-8.1,31.5-0.4l0-24.2H189.6z M167.7,115.3c-9.2,0-14,7.7-14,17.7s4.9,18,14.4,18c9.3,0,14.4-8,14.4-18
			S177.3,115.3,167.7,115.3z"/>
		<path class="st0" d="M238.6,135.3h-34.4c0,0-0.6,6.4,2.7,10.7c3,3.9,10.7,7.7,19.1,2.9l-0.1,7.3c0,0-30,7.4-30-24.2
			C195.8,103.9,238.6,97.2,238.6,135.3z M217.3,115.7c-12.2-0.3-13.3,12.7-13.3,12.7h26.5C230.6,128.5,230.6,116,217.3,115.7z"/>
		<path class="st0" d="M144.1,157.5c-2.1-0.2-7.7-0.7-8.9-1.4c-2.6-1.4-2.8-4.3-2.8-4.3s-2,1.3-4.4,2.5c-4.3,2.1-12.8,4.4-19.3,2.1
			c-11.2-3.9-7.6-16.3-7.6-16.3c1.1-6.9,12.4-9.7,22.3-10.8c7.6-0.8,8.3-3.4,8.3-7c0-3.5-3.9-6.4-8.9-6.7
			c-5.6-0.3-10.3,2.1-10.3,2.1v-7.5c0,0,15.6-2.5,21.5,1.2c5.9,3.8,5.3,11.4,5.3,11.4s-0.7,19.8-0.2,24.2c0.5,3.9,3.5,3.4,3.5,3.4
			l6.1,0.1L144.1,157.5z M113.9,136.5c-5.9,1.6-6.3,8.4-4.9,10.9c1.5,2.6,8.6,5.9,16.5,1.9c6.1-3.1,6-9.6,6-9.6v-7.3
			C127.9,134.9,119.8,134.9,113.9,136.5z"/>
		<path class="st0" d="M244.2,157.2h7.3c0,0-0.1-25.4,0-27.4c0.3-6.1,2.8-14.2,11.4-14c6.1,0.1,11.5,4.5,11.7,12.3
			c0.3,12.7,0.1,29.2,0.1,29.2h7.5v-29c0,0,0.1-12.3,11.7-12c9.6,0.2,10.6,6.8,11.3,11.4c0.7,4.6,0.5,29.6,0.5,29.6h7.2
			c0,0,0-23.6,0-27.5c0-3.9-2.5-20.9-18.5-20.9c-10.8-0.1-15.8,8.4-15.8,8.4s-5.9-8.3-15.7-8.4c-9.8-0.1-17,8.1-18.1,15.4
			S244.2,157.2,244.2,157.2z"/>
		<path class="st1" d="M516.2,93.8l7.7,0.1v14.8h4.6v6.6h-4.3v29.9c0,0-0.7,5.1,3.4,5.2c4.1,0.1,5.7,0.2,5.7,0.2l-3.5,6.5
			c0,0-8.4,0.7-10.9-2.2c-3-3.4-2.6-11.3-2.6-11.3l0-28.3l-8,0v-6.6h8L516.2,93.8z"/>
	</g>
	<text transform="matrix(1 0 0 1 210.0285 207.4855)" class="st2 st3 st4">SmartB2B</text>
	<rect class="st5" width="600" height="300"/>
</g>
</svg>
